<svg id="visual" viewBox="0 0 960 540" width="960" height="540" xmlns="http://www.w3.org/2000/svg" xmlns:xlink="http://www.w3.org/1999/xlink" version="1.1"><rect x="0" y="0" width="960" height="540" fill="#014380"></rect><defs><linearGradient id="grad1_0" x1="43.8%" y1="0%" x2="100%" y2="100%"><stop offset="14.444444444444446%" stop-color="#014380" stop-opacity="1"></stop><stop offset="85.55555555555554%" stop-color="#014380" stop-opacity="1"></stop></linearGradient></defs><defs><linearGradient id="grad2_0" x1="0%" y1="0%" x2="56.3%" y2="100%"><stop offset="14.444444444444446%" stop-color="#014380" stop-opacity="1"></stop><stop offset="85.55555555555554%" stop-color="#014380" stop-opacity="1"></stop></linearGradient></defs><g transform="translate(960, 0)"><path d="M0 351C-67.7 345.5 -135.4 339.9 -175.5 304C-215.6 268 -228.2 201.7 -252.9 146C-277.5 90.3 -314.3 45.1 -351 0L0 0Z" fill="#028ABC"></path></g><g transform="translate(0, 540)"><path d="M0 -351C66.5 -344.8 133.1 -338.6 175.5 -304C217.9 -269.4 236.3 -206.4 261.5 -151C286.8 -95.6 318.9 -47.8 351 0L0 0Z" fill="#028ABC"></path></g></svg>