<?xml version="1.0" encoding="iso-8859-1"?>
<!-- Generator: Adobe Illustrator 19.0.0, SVG Export Plug-In . SVG Version: 6.00 Build 0)  -->
<svg version="1.1" id="Layer_1" xmlns="http://www.w3.org/2000/svg" xmlns:xlink="http://www.w3.org/1999/xlink" x="0px" y="0px"
	 viewBox="0 0 512 512" style="enable-background:new 0 0 512 512;" xml:space="preserve">
<g>
	<path style="fill:#FBD971;" d="M512,256c0,141.383-114.617,256-256,256S0,397.383,0,256S114.617,0,256,0S512,114.617,512,256"/>
	<g>
		<path style="fill:#E57E25;" d="M331.453,229.517c-4.873,0-8.828-3.946-8.828-8.828s3.955-8.828,8.828-8.828
			c25.988,0,56.964-8.501,56.964-48.993c0-28.328-17.576-48.11-42.734-48.11c-20.242,0-36.714,16.472-36.714,36.723
			c0,15.228,12.385,27.613,27.613,27.613c11.202,0,20.321-9.119,20.321-20.33c0-7.989-6.506-14.486-14.495-14.486
			c-4.873,0-8.828-3.955-8.828-8.828c0-4.882,3.955-8.828,8.828-8.828c17.726,0,32.15,14.424,32.15,32.141
			c0,20.939-17.037,37.985-37.976,37.985c-24.964,0-45.268-20.312-45.268-45.268c0-29.978,24.391-54.378,54.369-54.378
			c34.993,0,60.39,27.657,60.39,65.766C406.073,204.606,378.177,229.517,331.453,229.517"/>
		<path style="fill:#E57E25;" d="M128.418,229.517c-4.873,0-8.828-3.946-8.828-8.828s3.955-8.828,8.828-8.828
			c25.988,0,56.964-8.501,56.964-48.993c0-28.328-17.576-48.11-42.734-48.11c-20.242,0-36.714,16.472-36.714,36.723
			c0,15.228,12.385,27.613,27.613,27.613c11.202,0,20.321-9.119,20.321-20.33c0-7.989-6.506-14.486-14.495-14.486
			c-4.873,0-8.828-3.955-8.828-8.828c0-4.882,3.955-8.828,8.828-8.828c17.726,0,32.15,14.424,32.15,32.141
			c0,20.939-17.037,37.985-37.976,37.985c-24.964,0-45.268-20.312-45.268-45.268c0-29.978,24.391-54.378,54.369-54.378
			c34.993,0,60.39,27.657,60.39,65.766C203.038,204.606,175.143,229.517,128.418,229.517"/>
	</g>
	<path style="fill:#C03A2B;" d="M161.23,391.183c-24.691,6.091-45.171-18.538-34.957-41.816
		c21.839-49.77,71.565-84.542,129.404-84.542c58.871,0,109.338,36.034,130.542,87.243c9.19,22.175-11.255,45.383-34.586,39.724
		C308.571,381.34,238.957,372.001,161.23,391.183"/>
	<path style="fill:#4482C3;" d="M176.607,387.747v53.636c0,9.746,7.91,17.655,17.655,17.655c9.746,0,17.655-7.91,17.655-17.655
		v-17.655c0,9.746,7.91,17.655,17.655,17.655c9.746,0,17.655-7.91,17.655-17.655v-43.564
		C225.071,380.526,201.342,382.742,176.607,387.747"/>
</g>
<g>
</g>
<g>
</g>
<g>
</g>
<g>
</g>
<g>
</g>
<g>
</g>
<g>
</g>
<g>
</g>
<g>
</g>
<g>
</g>
<g>
</g>
<g>
</g>
<g>
</g>
<g>
</g>
<g>
</g>
</svg>
